<?xml version="1.0" encoding="utf-8"?>
<!-- Generator: Adobe Illustrator 24.0.1, SVG Export Plug-In . SVG Version: 6.00 Build 0)  -->
<svg version="1.1" id="Layer_1" xmlns="http://www.w3.org/2000/svg" xmlns:xlink="http://www.w3.org/1999/xlink" x="0px" y="0px"
	 viewBox="0 0 512 512" style="enable-background:new 0 0 512 512;" xml:space="preserve">
<style type="text/css">
	.st0{fill:#FFFFFF;}
</style>
<path id="XMLID_298_" class="st0" d="M452.2,94.3h-17.4l21.5-70.7c1-3.2,0.6-6.6-0.9-9.5c-1.6-3-4.2-5.1-7.4-6.1l-24.6-7.5
	c-3.2-1-6.6-0.6-9.5,0.9c-3,1.6-5.1,4.2-6.1,7.4l-25.9,85.4H331c-4.1,0-7.5,3.4-7.5,7.5s3.4,7.5,7.5,7.5h46.2l-51.9,171.2
	c-8.7-3-17-7.1-24.8-12.3c-0.4-0.2-0.7-0.4-1.1-0.6c-20.3-13.2-43.8-20.2-68.1-20.2c-25.5,0-52.4,7.8-72,20.8
	c-2.1,1.4-3.4,3.7-3.4,6.2v55.4c0,4.1,3.4,7.5,7.5,7.5s7.5-3.4,7.5-7.5v-51.3c16.9-10.2,39.2-16.2,60.4-16.2
	c21.7,0,42.7,6.3,60.7,18.3c0.4,0.2,0.7,0.4,1.1,0.6c4.9,3.2,10,6,15.3,8.5l-18.7,61.5c-2,6.6,1.7,13.6,8.4,15.6l24.6,7.5
	c1.2,0.4,2.4,0.5,3.7,0.5c2,0,4-0.5,5.9-1.5c3-1.6,5.1-4.2,6.1-7.4l19.6-64.6c1.1,0,2.2,0.1,3.3,0.1c20.7,0,42.4-5.1,60.4-14.1
	v114.9c0,20.6-16.7,37.3-37.3,37.3H208.2c-20.6,0-37.3-16.7-37.3-37.3v-40.9c0-4.1-3.4-7.5-7.5-7.5s-7.5,3.4-7.5,7.5v40.9
	c0,28.8,23.5,52.3,52.3,52.3h176.1c28.8,0,52.3-23.5,52.3-52.3V274.5c0-2.8-1.5-5.3-4-6.6c-2.4-1.3-5.4-1.2-7.7,0.4
	c-13.3,8.8-30.5,14.9-48.1,17.2l53.4-176.1h22c1.4,0,2.6,1.2,2.6,2.6v372.5c0,7-5.7,12.6-12.6,12.6H150.3c-7,0-12.6-5.7-12.6-12.6
	V215.7c2,0.1,4,0.2,6,0.2c55.9,0,101.4-45.5,101.4-101.4c0-1.7,0-3.4-0.1-5.1h54.5c4.1,0,7.5-3.4,7.5-7.5s-3.4-7.5-7.5-7.5h-56.3
	C233.8,48,192.7,13,143.7,13c-21.1,0-41.3,6.4-58.5,18.6c-3.4,2.4-4.2,7.1-1.8,10.5s7.1,4.2,10.5,1.8C108.5,33.4,125.7,28,143.7,28
	c40.8,0,75,28.4,84.1,66.4h-17.5c-8.6-28.6-35.2-49.5-66.6-49.5c-38.4,0-69.6,31.2-69.6,69.6c0,31,20.4,57.4,48.6,66.3v17.5
	c-37.5-9.4-65.4-43.4-65.4-83.9c0-18.1,5.5-35.5,16-50.2c2.4-3.4,1.6-8.1-1.7-10.5c-3.4-2.4-8.1-1.6-10.5,1.7
	c-12.3,17.3-18.8,37.6-18.8,58.9c0,48.7,34.5,89.5,80.4,99.2v270.7c0,15.2,12.4,27.6,27.6,27.6h291.9c15.2,0,27.6-12.4,27.6-27.6
	V111.9C469.8,102.2,461.9,94.3,452.2,94.3L452.2,94.3z M421.4,15.6l19.9,6l-22.1,72.7h-21.7L421.4,15.6z M324.6,359.3l-19.8-6
	l17.6-57.9c6.6,2.1,13.3,3.8,20.2,4.8L324.6,359.3z M360.8,286.5c-7.1,0-14.2-0.7-21-2.1l53.1-175.1h21.7L360.8,286.5z M89.1,114.4
	c0-30.1,24.5-54.6,54.6-54.6c23,0,42.7,14.3,50.7,34.5h-54.2c-9.7,0-17.6,7.9-17.6,17.6v52.9C103,156.5,89.1,137.1,89.1,114.4
	L89.1,114.4z M198.2,114.4c0,30.1-24.5,54.6-54.6,54.6c-2,0-4-0.1-6-0.3v-56.7c0-1.4,1.2-2.6,2.6-2.6H198
	C198.1,111,198.2,112.7,198.2,114.4z M137.6,183.7c2,0.2,4,0.3,6,0.3c38.4,0,69.6-31.2,69.6-69.6c0-1.7-0.1-3.4-0.2-5.1h16.9
	c0.1,1.7,0.2,3.4,0.2,5.1c0,47.7-38.8,86.4-86.4,86.4c-2,0-4-0.1-6-0.2V183.7z"/>
<path id="XMLID_306_" class="st0" d="M242,310.7c4.1,0,7.5-3.4,7.5-7.5s-3.4-7.5-7.5-7.5h-4c-4.1,0-7.5,3.4-7.5,7.5s3.4,7.5,7.5,7.5
	H242z"/>
<path id="XMLID_307_" class="st0" d="M216.1,341.5c4.1,0,7.5-3.4,7.5-7.5s-3.4-7.5-7.5-7.5h-4c-4.1,0-7.5,3.4-7.5,7.5
	s3.4,7.5,7.5,7.5H216.1z"/>
<path id="XMLID_308_" class="st0" d="M369.4,404.6c4.1,0,7.5-3.4,7.5-7.5s-3.4-7.5-7.5-7.5h-4c-4.1,0-7.5,3.4-7.5,7.5
	s3.4,7.5,7.5,7.5H369.4z"/>
</svg>
