<?xml version="1.0" encoding="utf-8"?>
<!-- Generator: Adobe Illustrator 24.0.1, SVG Export Plug-In . SVG Version: 6.00 Build 0)  -->
<svg version="1.1" id="Layer_1" xmlns="http://www.w3.org/2000/svg" xmlns:xlink="http://www.w3.org/1999/xlink" x="0px" y="0px"
	 viewBox="0 0 512 512" style="enable-background:new 0 0 512 512;" xml:space="preserve">
<style type="text/css">
	.st0{fill:#FFFFFF;}
</style>
<path class="st0" d="M437.3,64c-2.2,0-4.4,1.4-9.2,3.2L320,108.8L192,64L71.5,104.5c-4.3,1.1-7.5,5.3-7.5,10.7v322.1
	c0,6.4,4.3,10.7,10.7,10.7c1.8,0,6.5-2.3,9.1-3.3L192,403.2L320,448l120.5-40.5c4.3-1.1,7.5-5.3,7.5-10.7V74.7
	C448,68.3,443.7,64,437.3,64z M320,405.3l-128-44.8V106.7l128,44.8V405.3z"/>
</svg>
