<?xml version="1.0" encoding="utf-8"?>
<!-- Generator: Adobe Illustrator 24.0.1, SVG Export Plug-In . SVG Version: 6.00 Build 0)  -->
<svg version="1.1" id="Layer_1" xmlns="http://www.w3.org/2000/svg" xmlns:xlink="http://www.w3.org/1999/xlink" x="0px" y="0px"
	 viewBox="0 0 512 512" style="enable-background:new 0 0 512 512;" xml:space="preserve">
<style type="text/css">
	.st0{fill:#FFFFFF;}
</style>
<path class="st0" d="M190.4,148.6L161,252.9c-6.3,22.8,20.7,31.7,27.3,10.3l26.3-96.2h7.4l-45.2,169H219v127c0,23,32,23,32,0V336h10
	v127c0,23,31,23,31,0V336h43.4l-46.2-169h8.4l26.3,96.2c6.5,21.9,33.3,12.5,27.3-10.2l-29.4-104.4c-4-11.8-18.2-32.6-42-33.6h-47.3
	C207.9,116,193.8,136.6,190.4,148.6L190.4,148.6z M292.6,69.2c0-20.6-16.4-37.3-36.6-37.3s-36.6,16.7-36.6,37.3s16.4,37.3,36.6,37.3
	S292.6,89.8,292.6,69.2z"/>
</svg>
